HIERARCHY
ROOT Hips
{
  OFFSET 0 0 0
  CHANNELS 6 Xposition Yposition Zposition Zrotation Xrotation Yrotation
  JOINT Spine
  {
    OFFSET 0 10.1816 0.131521
    CHANNELS 3 Zrotation Xrotation Yrotation
    JOINT Spine1
    {
      OFFSET 0 10.0835 -1.0008
      CHANNELS 3 Zrotation Xrotation Yrotation
      JOINT Spine2
      {
        OFFSET 0 9.10001 -1.37342
        CHANNELS 3 Zrotation Xrotation Yrotation
        JOINT Neck
        {
          OFFSET 0 16.6717 -2.51617
          CHANNELS 3 Zrotation Xrotation Yrotation
          JOINT Head
          {
            OFFSET 0 9.61788 1.68501
            CHANNELS 3 Zrotation Xrotation Yrotation
            End Site
            {
              OFFSET 0 0 0
            }
          }
        }
        JOINT LeftShoulder
        {
          OFFSET 4.57045 10.946 -2.62799
          CHANNELS 3 Zrotation Xrotation Yrotation
          JOINT LeftArm
          {
            OFFSET 10.5924 -0.524583 -2.23212
            CHANNELS 3 Zrotation Xrotation Yrotation
            JOINT LeftForeArm
            {
              OFFSET 27.8415 -8.94286e-05 3.74589e-05
              CHANNELS 3 Zrotation Xrotation Yrotation
              JOINT LeftHand
              {
                OFFSET 28.3288 -1.74407e-05 3.78045e-05
                CHANNELS 3 Zrotation Xrotation Yrotation
                End Site
                {
                  OFFSET 0 0 0
                }
              }
            }
          }
        }
        JOINT RightShoulder
        {
          OFFSET -4.56997 10.9462 -2.62802
          CHANNELS 3 Zrotation Xrotation Yrotation
          JOINT RightArm
          {
            OFFSET -10.5928 -0.524798 -2.2321
            CHANNELS 3 Zrotation Xrotation Yrotation
            JOINT RightForeArm
            {
              OFFSET -27.8415 -3.30792e-05 1.16763e-05
              CHANNELS 3 Zrotation Xrotation Yrotation
              JOINT RightHand
              {
                OFFSET -28.3288 0 5.5816e-05
                CHANNELS 3 Zrotation Xrotation Yrotation
                End Site
                {
                  OFFSET 0 0 0
                }
              }
            }
          }
        }
      }
    }
  }
  JOINT LeftUpLeg
  {
    OFFSET 8.20778 -6.75171 -1.59956
    CHANNELS 3 Zrotation Xrotation Yrotation
    JOINT LeftLeg
    {
      OFFSET 0 -44.3705 0.284643
      CHANNELS 3 Zrotation Xrotation Yrotation
      JOINT LeftFoot
      {
        OFFSET 0 -44.4279 -2.98219
        CHANNELS 3 Zrotation Xrotation Yrotation
        JOINT LeftToeBase
        {
          OFFSET 0 -8.72867 10.7106
          CHANNELS 3 Zrotation Xrotation Yrotation
          End Site
          {
            OFFSET 0 0 0
          }
        }
      }
    }
  }
  JOINT RightUpLeg
  {
    OFFSET -8.2078 -6.75166 -1.59956
    CHANNELS 3 Zrotation Xrotation Yrotation
    JOINT RightLeg
    {
      OFFSET 0 -44.3705 0.286156
      CHANNELS 3 Zrotation Xrotation Yrotation
      JOINT RightFoot
      {
        OFFSET 0 -44.4277 -2.98379
        CHANNELS 3 Zrotation Xrotation Yrotation
        JOINT RightToeBase
        {
          OFFSET 0 -8.72867 10.7106
          CHANNELS 3 Zrotation Xrotation Yrotation
          End Site
          {
            OFFSET 0 0 0
          }
        }
      }
    }
  }
}
MOTION
Frames:	7
Frame Time:	0.0333333
6.46226 89.7925 46.9346 -32.356753999999995 -22.915852 -40.521394999999984 -9.999999974752427e-07 9.999999974752427e-07 2.999999992425728e-06 -9.999999974752427e-07 -1.9999999949504854e-06 1.9999999949504854e-06 9.999999974752427e-07 -1.9999999949504854e-06 9.999999974752427e-07 0.0 9.999999974752427e-07 1.9999999949504854e-06 12.989310999999987 18.743082000000015 -0.034163000000006605 37.76809800000001 2.3945779999999957 -7.533967999999987 -69.229896 -40.06912 -20.488008000000008 -76.693763 -43.85798299999999 -8.827933000000002 0.0 3.999999989900971e-06 0.0 -33.409648000000004 3.911227999999994 -11.645960000000002 52.12195199999999 1.3038549999999987 14.298331999999988 106.37944500000003 -46.637046999999995 50.051401 -1.9999999949504854e-06 1.9999999949504854e-06 1.9999999949504854e-06 8.622440000000012 -9.396032999999989 0.5911580000000072 2.175188999999989 37.003225999999984 -0.2153470000000084 0.0 -2.999999992425728e-06 -4.9999999873762135e-06 9.999999974752427e-07 0.0 -2.999999992425728e-06 -3.845694000000009 -101.081759 0.022295000000013943 18.488246000000004 92.08348999999998 -1.800011000000012 -1.9999999949504854e-06 -1.9999999949504854e-06 -2.999999992425728e-06 1.9999999949504854e-06 -9.999999974752427e-07 2.999999992425728e-06 
7.32906 89.4527 45.6273 -32.39161200000001 -23.212853999999993 -41.001120000000014 1.9999999949504854e-06 -1.9999999949504854e-06 -3.999999989900971e-06 0.0 -1.9999999949504854e-06 -1.9999999949504854e-06 2.999999992425728e-06 -9.999999974752427e-07 0.0 1.9999999949504854e-06 9.999999974752427e-07 -3.999999989900971e-06 12.729899999999986 18.970179 -0.034063000000003285 37.616714 2.3542419999999993 -7.211340000000007 -69.170282 -39.97697099999999 -20.401376999999997 -76.569918 -44.46809999999999 -9.122685999999987 2.999999992425728e-06 -1.9999999949504854e-06 0.0 -33.47941500000002 3.866944999999987 -11.421952000000005 51.895115000000004 1.2073210000000074 14.299353999999994 107.099784 -46.087050000000005 50.19168300000001 1.9999999949504854e-06 -9.999999974752427e-07 -9.999999974752427e-07 8.197977000000009 -10.42486199999999 0.5540699999999958 2.398937999999987 37.35379900000001 -0.23750599999999622 0.0 1.9999999949504854e-06 -1.9999999949504854e-06 1.9999999949504854e-06 -1.9999999949504854e-06 -1.9999999949504854e-06 -3.505391000000003 -100.346277 0.050103000000007114 18.21257 91.89969000000002 -1.774105999999989 1.9999999949504854e-06 0.0 1.9999999949504854e-06 -9.999999974752427e-07 9.999999974752427e-07 -9.999999974752427e-07 
8.11098 88.8352 44.2655 -32.521480999999994 -18.502927999999997 -33.78618 0.0 -9.999999974752427e-07 -2.999999992425728e-06 -9.999999974752427e-07 -9.999999974752427e-07 -6.000000013273166e-06 0.0 0.0 -2.999999992425728e-06 0.0 9.999999974752427e-07 -9.999999974752427e-07 17.263563000000005 22.68582599999999 -0.04140699999999242 34.54111399999999 2.065726000000012 -7.311901000000006 -70.488413 -44.52643699999999 -23.266154999999998 -69.905982 -43.18659600000001 -3.1083779999999877 4.9999999873762135e-06 9.999999974752427e-07 -9.999999974752427e-07 -32.37654499999999 3.491006999999996 -8.012707000000006 55.91688400000001 2.3206639999999936 13.907173999999998 97.78037999999998 -44.028448 26.350824999999986 4.9999999873762135e-06 9.999999974752427e-07 9.999999974752427e-07 18.615886999999987 -2.69135 1.36721 -6.557571999999993 44.45091600000001 0.6487140000000124 2.999999992425728e-06 4.9999999873762135e-06 -9.999999974752427e-07 -9.999999974752427e-07 -1.9999999949504854e-06 -2.999999992425728e-06 -15.185056000000003 -96.975401 -0.8320779999999957 22.175479999999993 104.77338700000001 -2.142202999999995 9.999999974752427e-07 4.9999999873762135e-06 9.999999974752427e-07 0.0 0.0 3.999999989900971e-06 
8.58268 88.0628 42.8454 -27.46624 -9.859977000000015 -26.67706899999999 0.0 0.0 -1.9999999949504854e-06 -9.999999974752427e-07 0.0 -9.999999974752427e-07 9.999999974752427e-07 9.999999974752427e-07 -2.999999992425728e-06 0.0 0.0 0.0 19.637721 20.77644699999999 -0.04200900000000729 31.091988000000015 2.0693180000000098 -9.344632999999988 -73.544239 -37.49987300000001 -21.777951 -71.217139 -29.659573999999992 2.1866100000000017 9.999999974752427e-07 -4.9999999873762135e-06 -9.999999974752427e-07 -29.667528000000004 3.827920000000006 -7.803062000000011 55.618179 -0.011468000000007805 13.095533999999986 98.81948399999999 -40.105693 20.314287000000007 0.0 1.9999999949504854e-06 1.9999999949504854e-06 10.68966499999999 2.0358469999999897 0.8018299999999954 -3.515287999999998 43.599965999999995 0.3484009999999955 9.999999974752427e-07 1.9999999949504854e-06 2.999999992425728e-06 -9.999999974752427e-07 -9.999999974752427e-07 -3.999999989900971e-06 -9.303541999999993 -57.00579400000001 -0.4325190000000134 24.234162999999995 73.145049 -2.329543000000001 9.999999974752427e-07 0.0 9.999999974752427e-07 0.0 9.999999974752427e-07 9.999999974752427e-07 
8.56962 87.3124 41.1668 -30.987837000000013 -8.18753000000001 -22.681354 -9.999999974752427e-07 -9.999999974752427e-07 9.999999974752427e-07 1.9999999949504854e-06 -9.999999974752427e-07 9.999999974752427e-07 1.9999999949504854e-06 0.0 0.0 9.999999974752427e-07 -9.999999974752427e-07 1.9999999949504854e-06 21.52697900000001 12.797260999999992 -0.036638000000010607 33.33576600000001 5.095068999999995 -3.393381000000005 -63.613411 -22.122705999999994 -12.086124000000012 -100.134446 -41.34694999999999 -21.692195999999996 9.999999974752427e-07 -2.999999992425728e-06 9.999999974752427e-07 -28.861815000000007 5.534921999999995 -9.122197999999997 67.757847 7.167180000000002 11.244505000000004 96.12068499999998 -46.025503000000015 25.269566999999995 0.0 1.9999999949504854e-06 9.999999974752427e-07 25.955124000000012 1.524819000000008 1.9095590000000016 -2.384364000000005 42.955084 0.2364599999999939 9.999999974752427e-07 -4.9999999873762135e-06 -1.9999999949504854e-06 9.999999974752427e-07 -3.999999989900971e-06 9.999999974752427e-07 -21.529245000000003 -34.679632999999995 -1.4268150000000048 16.98106100000001 57.42300499999999 -1.6579729999999984 1.9999999949504854e-06 -1.9999999949504854e-06 0.0 2.999999992425728e-06 -9.999999974752427e-07 4.9999999873762135e-06 
7.95979 86.7472 38.9326 -28.1661 -4.257220999999987 -15.702820000000003 0.0 -9.999999974752427e-07 0.0 0.0 -9.999999974752427e-07 0.0 0.0 0.0 -1.9999999949504854e-06 -1.9999999949504854e-06 0.0 -1.9999999949504854e-06 23.949512 6.456672999999995 -0.03395499999999174 32.632858 4.148671000000007 -6.458451999999994 -67.046243 -25.727596000000005 -14.395949000000002 -94.749948 -37.482541 -12.202812999999992 2.999999992425728e-06 -9.999999974752427e-07 9.999999974752427e-07 -31.89068900000001 6.040320000000008 -9.770663000000013 64.523923 8.607226999999995 11.764365999999995 98.129055 -41.14970099999999 19.848832000000016 0.0 0.0 0.0 24.61453800000001 -11.842748 1.7597609999999975 3.3250930000000096 52.84267700000001 -0.32917000000000485 0.0 4.9999999873762135e-06 0.0 0.0 2.999999992425728e-06 9.999999974752427e-07 -17.123761000000002 -32.808547000000004 -1.1080690000000004 12.360826000000003 36.67269300000001 -1.2154030000000091 -2.999999992425728e-06 1.9999999949504854e-06 -3.999999989900971e-06 -9.999999974752427e-07 0.0 0.0 
6.82923 86.4546 35.9677 -28.134577000000007 -4.2632600000000025 -15.749527999999998 -9.999999974752427e-07 -9.999999974752427e-07 -2.999999992425728e-06 0.0 -1.9999999949504854e-06 0.0 -1.9999999949504854e-06 0.0 9.999999974752427e-07 0.0 0.0 0.0 23.851594000000006 6.6745070000000055 -0.03409700000000271 32.66227900000001 4.158861000000002 -6.399893999999989 -66.810896 -26.021060000000006 -14.364496000000003 -94.470211 -37.503309 -12.024676999999997 -2.999999992425728e-06 9.999999974752427e-07 3.999999989900971e-06 -31.801852999999994 5.9728330000000085 -9.529237999999992 64.6558 8.24575200000001 11.734938 97.96788300000003 -41.00128699999999 19.48002600000001 0.0 -9.999999974752427e-07 9.999999974752427e-07 24.52343400000001 -12.002071999999998 1.7527220000000057 3.3817530000000033 52.76704000000001 -0.33477600000000507 -9.999999974752427e-07 -1.9999999949504854e-06 9.999999974752427e-07 0.0 1.9999999949504854e-06 -9.999999974752427e-07 -17.105748000000006 -32.96493799999999 -1.1060310000000015 12.344209000000006 36.673550000000006 -1.2137969999999996 0.0 -2.999999992425728e-06 -3.999999989900971e-06 -9.999999974752427e-07 2.999999992425728e-06 -9.999999974752427e-07 
